<svg xmlns="http://www.w3.org/2000/svg" viewBox="0 0 857 143" preserveAspectRatio="xMinYMid meet">
  <path fill-rule="nonzero" d="M547.6 54.7c-7.9 0-15.4 5.1-20.7 13.3h-.2l1.9-12h-5.1c-.7 5.5-1.9 12.6-3.3 20.5l-11.9 63.4h5.3l4.7-25.7h.2c2.2 1.2 6.1 2.6 11.9 2.6 19 0 32.7-22.6 32.7-42.7 0-9.8-4.3-19.4-15.5-19.4zM530.8 112c-4.8 0-8.8-1.2-11.5-3.3l3.8-20.5c3.3-18 14.4-28.8 22.8-28.8 8.8 0 11.5 7.9 11.5 15 .1 15.3-10.8 37.6-26.6 37.6zm37.8-13.4c0 10.7 5.5 18.1 14.5 18.1 7.8 0 15.4-4.1 22.2-17.2h.2c-.9 6.7-1.6 12.4-1.5 16h5.2c-.2-6.3.5-15.9 2.6-27l6.3-32c-3.1-1.1-7.8-1.7-12-1.7-22.9-.1-37.5 23.5-37.5 43.8zm39.2-16.5C604.9 97.5 594 112 584.4 112c-8.1 0-10.3-6.9-10.2-14.8.1-18.7 13.5-37.8 30.6-37.8 3.7 0 5.8.4 7.2.9l-4.2 21.8zM637.2 69h-.2c.7-5.2 1.2-9.2 1.6-13h-4.8c-.5 5.2-1.4 11.9-2.9 19.5l-7.6 40.1h5.3l5.7-30.3c2.5-13 11.2-24.8 19-24.8.9 0 1.5 0 2 .1l1.1-5.7c-.6 0-1.5-.1-2.2-.1-7.4-.1-13.4 6.2-17 14.2zm35.7 42.9c-3.7 0-5.3-2.1-5.3-5.6 0-3.2.5-6.3 1.2-10.3l6.6-35.5h14l1-4.6h-14l2.6-13-6 2.4-2 10.7h-8.7l-.9 4.6h8.6l-6.7 35.5c-1 4.6-1.4 7.7-1.4 10.9 0 5 2.7 9.7 9.8 9.7 2.1 0 4.2-.4 5.8-.9l-.4-4.3c-.9.3-2.2.4-4.2.4zM724 54.7c-8.2 0-15.6 4.7-20.8 13.4h-.2l1.7-12.2h-5.1c-.5 4.6-1.2 10.4-2.6 17.5l-7.9 42h5.3l5.8-31.6c2.6-14.4 13.9-24.3 21.8-24.3 7.3 0 9.8 4.5 9.8 10.7 0 3.1-.4 6-.9 8.7l-6.9 36.6h5.3l6.8-36.6c.6-3.2 1.1-6.2 1.1-9.2.1-11.3-7.3-15-13.2-15zm51 0c-17 0-29 22.4-29 39.6 0 11.4 4.8 22.3 18.7 22.3 7.4 0 13.1-2.4 16.2-4.5l-1.6-4.2c-2.7 1.6-7.2 4-13.8 4-6.3 0-10.9-3.3-13-10-1.2-4.3-1.1-12.2-.5-14.9 19.5.1 36.8-4.1 36.8-19.2.1-6.8-4-13.1-13.8-13.1zm8.3 13.3c0 11.8-14.9 14.4-30.4 14.3 3.7-12.9 11.9-22.8 21.1-22.8 5.6 0 9.3 3 9.3 8.4v.1zm40.6-7.5l1.1-5.7c-.6 0-1.5-.1-2.2-.1-7.4 0-13.4 6.3-17 14.3h-.2c.7-5.2 1.2-9.2 1.6-13h-4.8c-.5 5.2-1.4 11.9-2.9 19.5l-7.6 40.1h5.3l5.7-30.3c2.5-13 11.2-24.8 19-24.8.9-.1 1.5-.1 2 0zm22.4-1.1c3.5 0 6.6 1.4 8.4 2.5l2-4.6c-1.7-1.4-5.7-2.6-9.8-2.6-10.5 0-18.1 7.6-18.1 16.9 0 5.6 3.2 10.9 9.2 14.8 5.6 3.6 8.1 7.2 8.1 13.1 0 6.8-5.3 12.4-13.1 12.4-4.3 0-8.3-1.7-10.4-3.3l-2.1 4.5c2 1.6 6.7 3.6 12 3.6 10.3 0 19.1-6.6 19.1-18.6 0-6.1-3.5-11.5-9.2-15.4-4.8-3.3-8.1-6.4-8.1-12 0-6.2 4.8-11.3 12-11.3zM173 79.4c-4.3-2.3-6.5-4.3-6.5-7 0-3.4 3.1-5.6 7.9-5.6 5.6 0 10.6 2.3 10.6 2.3l3.9-12s-3.6-2.8-14.2-2.8c-14.8 0-25 8.5-25 20.4 0 6.8 4.8 11.9 11.2 15.6 5.2 2.9 7 5 7 8.1 0 3.2-2.6 5.8-7.4 5.8-7.1 0-13.9-3.7-13.9-3.7l-4.2 12s6.2 4.2 16.7 4.2c15.2 0 26.2-7.5 26.2-21-.2-7.4-5.7-12.5-12.3-16.3zm60.7-25.3c-7.5 0-13.4 3.6-17.9 9l-.2-.1 6.5-34h-16.9l-16.5 86.6h16.9l5.6-29.6c2.2-11.2 8-18.1 13.4-18.1 3.8 0 5.3 2.6 5.3 6.3 0 2.3-.2 5.2-.7 7.5l-6.4 33.9h16.9l6.6-35c.7-3.7 1.2-8.1 1.2-11.1 0-9.6-5-15.4-13.8-15.4zm52.1 0c-20.4 0-33.9 18.4-33.9 38.9 0 13.1 8.1 23.7 23.3 23.7 20 0 33.5-17.9 33.5-38.9.1-12.2-7-23.7-22.9-23.7zm-8.3 49.6c-5.8 0-8.2-4.9-8.2-11.1 0-9.7 5-25.5 14.2-25.5 6 0 8 5.2 8 10.2 0 10.4-5 26.4-14 26.4zm74.7-49.6c-11.4 0-17.9 10.1-17.9 10.1h-.2l1-9.1h-15c-.7 6.1-2.1 15.5-3.4 22.5l-11.8 62h16.9l4.7-25.1h.4s3.5 2.2 9.9 2.2c19.9 0 32.9-20.4 32.9-41-.1-11.4-5.1-21.6-17.5-21.6zm-16.3 49.8c-4.4 0-7-2.5-7-2.5l2.8-15.8c2-10.6 7.5-17.6 13.4-17.6 5.2 0 6.8 4.8 6.8 9.3 0 11-6.5 26.6-16 26.6zm57.9-74.1c-5.4 0-9.7 4.3-9.7 9.8 0 5 3.2 8.5 8 8.5h.2c5.3 0 9.8-3.6 9.9-9.8.1-5-3.3-8.5-8.4-8.5zm-23.7 85.7H387l11.6-60.1h-17.1m60.2-.1h-11.8l.6-2.8c1-5.8 4.4-10.9 10.1-10.9 3 0 5.4.9 5.4.9l3.3-13.3s-2.9-1.5-9.2-1.5c-6 0-12 1.7-16.6 5.6-5.8 4.9-8.5 12-9.8 19.2l-.5 2.8h-7.9l-2.5 12.8h7.9l-9 47.4h16.9l9-47.4h11.7l2.4-12.8zm25.4 41.4h-.3c-.3-4.7-4.2-41.3-4.2-41.3h-17.8l10.2 55.1c.2 1.2.1 2-.4 2.8-2 3.8-5.3 7.5-9.2 10.2-3.2 2.3-6.8 3.8-9.6 4.8l4.7 14.4c3.4-.7 10.6-3.6 16.6-9.2 7.7-7.2 14.9-18.4 22.2-33.6l20.8-44.5h-17.7s-10.6 26.7-15.3 41.3z"/>
  <path d="M80.576 138.93l41.83-9.086S107.322 27.848 107.226 27.15c-.096-.7-.71-1.087-1.213-1.13-.506-.042-11.195-.834-11.195-.834S87.393 17.816 86.58 17c-.2-.198-.444-.33-.71-.42l-5.294 122.35M66.706 9.047c3.966.498 6.61 5.012 8.31 10.207l-6.71 2.076.002-1.446c0-4.436-.615-8.007-1.603-10.837zm-7.16 56.482S54.9 63.05 49.21 63.05c-8.343 0-8.762 5.237-8.762 6.556 0 7.2 18.765 9.958 18.765 26.82 0 13.266-8.413 21.81-19.76 21.81-13.616 0-20.578-8.473-20.578-8.473l3.645-12.045s7.157 6.145 13.198 6.145c3.944 0 5.55-3.108 5.55-5.377 0-9.39-15.396-9.81-15.396-25.242 0-12.987 9.322-25.556 28.14-25.556 7.25 0 10.83 2.078 10.83 2.078L59.546 65.53zm-3.09-60.65c.773 0 1.553.26 2.3.773-5.75 2.703-11.91 9.516-14.51 23.12l-10.96 3.394C36.336 21.79 43.572 4.88 56.454 4.88zM63.606 22c0 .274-.003.526-.006.78-4.366 1.35-9.108 2.82-13.86 4.29 2.668-10.3 7.67-15.274 12.045-17.152 1.1 2.766 1.82 6.73 1.82 12.083zm20.367-5.488c-.162.03-.31.062-.42.094l-4.153 1.29C76.92 10.76 72.54 4.203 64.843 4.203c-.214 0-.43.01-.652.02C62.007 1.33 59.29.07 56.95.07c-17.936 0-26.505 22.422-29.19 33.817-6.97 2.158-11.922 3.693-12.554 3.892-3.89 1.22-4.013 1.34-4.523 5.002C10.297 45.562.118 124.28.118 124.28l78.554 14.718 5.304-122.48z"/>
</svg>
